# xmcd
#
# Track frame offsets: 
#        150
#        15635
#        26648
#        40032
#        59407
#        81326
#        98980
#        112101
#        122166
#        139684
#        159909
#        177354
#        202841
#        216689
#        230896
#        247314
#        262467
#
# Disc length: 3728 seconds
#
# Revision: 1
# Processed by: cddbd v1.5.2PL0 Copyright (c) Steve Scherf et al.
# Submitted via: ExactAudioCopyFreeDBPlugin 1.0
#
DISCID=050e8e11
DTITLE=The Broken Circle Breakdown Bluegrass Band - Unbroken!
DYEAR=2014
DGENRE=Bluegrass
TTITLE0=Where the soul of man never dies
TTITLE1=Black mountain rag
TTITLE2=Country in my genes
TTITLE3=The boy who wouldn't hoe corn
TTITLE4=Wayfaring stranger
TTITLE5=Sin City
TTITLE6=Sandmountain
TTITLE7=Tumbling tumbleweeds
TTITLE8=Don't think twice it's all right
TTITLE9=Do I ever cross your mind
TTITLE10=Rueben's train
TTITLE11=The way it goes
TTITLE12=The one I love is gone
TTITLE13=Cowboyman
TTITLE14=Cherokee shuffle
TTITLE15=Ain't nobody gonna miss me when I'm gone
TTITLE16=If I needed you
EXTD=
EXTT0=
EXTT1=
EXTT2=
EXTT3=
EXTT4=
EXTT5=
EXTT6=
EXTT7=
EXTT8=
EXTT9=
EXTT10=
EXTT11=
EXTT12=
EXTT13=
EXTT14=
EXTT15=
EXTT16=
PLAYORDER=
